<svg xmlns="http://www.w3.org/2000/svg" xmlns:xlink="http://www.w3.org/1999/xlink" width="50" zoomAndPan="magnify" viewBox="0 0 37.5 37.499999" height="50" preserveAspectRatio="xMidYMid meet" version="1.0"><defs><clipPath id="990822470a"><path d="M 0 0 L 37.007812 0 L 37.007812 37.007812 L 0 37.007812 Z M 0 0 " clip-rule="nonzero"/></clipPath></defs><path fill="#ffffff" d="M 18.328125 20.777344 C 16.738281 19.46875 15.671875 17.851562 15.113281 16.933594 L 14.699219 16.148438 C 14.84375 15.992188 15.953125 14.800781 16.4375 14.152344 C 17.042969 13.34375 16.164062 12.609375 16.164062 12.609375 C 16.164062 12.609375 13.695312 10.140625 13.132812 9.648438 C 12.566406 9.160156 11.921875 9.433594 11.921875 9.433594 C 10.738281 10.195312 9.511719 10.859375 9.4375 14.058594 C 9.433594 17.050781 11.707031 20.136719 14.164062 22.527344 C 16.625 25.226562 20.003906 27.929688 23.269531 27.925781 C 26.464844 27.855469 27.128906 26.628906 27.894531 25.445312 C 27.894531 25.445312 28.167969 24.796875 27.675781 24.234375 C 27.1875 23.671875 24.714844 21.199219 24.714844 21.199219 C 24.714844 21.199219 23.984375 20.320312 23.171875 20.929688 C 22.566406 21.378906 21.480469 22.386719 21.21875 22.628906 C 21.21875 22.628906 19.402344 21.660156 18.328125 20.777344 Z M 18.328125 20.777344 " fill-opacity="1" fill-rule="nonzero"/><g clip-path="url(#990822470a)"><path fill="#ffffff" d="M 18.753906 37.488281 C 8.417969 37.488281 0.0078125 29.082031 0.0078125 18.742188 C 0.0078125 8.40625 8.417969 0 18.753906 0 C 29.089844 0 37.5 8.40625 37.5 18.742188 C 37.5 29.082031 29.089844 37.488281 18.753906 37.488281 Z M 18.753906 1.847656 C 9.4375 1.847656 1.859375 9.425781 1.859375 18.742188 C 1.859375 28.0625 9.4375 35.640625 18.753906 35.640625 C 28.070312 35.640625 35.652344 28.0625 35.652344 18.742188 C 35.652344 9.425781 28.070312 1.847656 18.753906 1.847656 Z M 18.753906 1.847656 " fill-opacity="1" fill-rule="nonzero"/></g></svg>