<svg xmlns="http://www.w3.org/2000/svg" xmlns:xlink="http://www.w3.org/1999/xlink" width="50" zoomAndPan="magnify" viewBox="0 0 37.5 37.499999" height="50" preserveAspectRatio="xMidYMid meet" version="1.0"><defs><clipPath id="cd41379791"><path d="M 0 0 L 37.007812 0 L 37.007812 37.007812 L 0 37.007812 Z M 0 0 " clip-rule="nonzero"/></clipPath></defs><g clip-path="url(#cd41379791)"><path fill="#ffffff" d="M 18.75 0 C 18.136719 0 17.523438 0.03125 16.914062 0.0898438 C 16.300781 0.152344 15.695312 0.242188 15.09375 0.359375 C 14.488281 0.480469 13.894531 0.628906 13.308594 0.808594 C 12.71875 0.984375 12.140625 1.191406 11.574219 1.425781 C 11.007812 1.664062 10.453125 1.925781 9.910156 2.214844 C 9.371094 2.503906 8.84375 2.820312 8.332031 3.160156 C 7.824219 3.5 7.328125 3.867188 6.855469 4.257812 C 6.378906 4.644531 5.925781 5.058594 5.492188 5.492188 C 5.058594 5.925781 4.644531 6.378906 4.257812 6.855469 C 3.867188 7.328125 3.5 7.824219 3.160156 8.332031 C 2.820312 8.84375 2.503906 9.371094 2.214844 9.910156 C 1.925781 10.453125 1.664062 11.007812 1.425781 11.574219 C 1.191406 12.140625 0.984375 12.71875 0.808594 13.308594 C 0.628906 13.894531 0.480469 14.488281 0.359375 15.09375 C 0.242188 15.695312 0.152344 16.300781 0.0898438 16.914062 C 0.03125 17.523438 0 18.136719 0 18.75 C 0 19.363281 0.03125 19.976562 0.0898438 20.585938 C 0.152344 21.199219 0.242188 21.804688 0.359375 22.40625 C 0.480469 23.011719 0.628906 23.605469 0.808594 24.191406 C 0.984375 24.78125 1.191406 25.359375 1.425781 25.925781 C 1.664062 26.492188 1.925781 27.046875 2.214844 27.589844 C 2.503906 28.128906 2.820312 28.65625 3.160156 29.167969 C 3.5 29.675781 3.867188 30.171875 4.257812 30.644531 C 4.644531 31.121094 5.058594 31.574219 5.492188 32.007812 C 5.925781 32.441406 6.378906 32.855469 6.855469 33.242188 C 7.328125 33.632812 7.824219 34 8.332031 34.339844 C 8.84375 34.679688 9.371094 34.996094 9.910156 35.285156 C 10.453125 35.574219 11.007812 35.835938 11.574219 36.074219 C 12.140625 36.308594 12.71875 36.515625 13.308594 36.691406 C 13.894531 36.871094 14.488281 37.019531 15.09375 37.140625 C 15.695312 37.257812 16.300781 37.347656 16.914062 37.410156 C 17.523438 37.46875 18.136719 37.5 18.75 37.5 C 18.976562 37.5 19.195312 37.457031 19.402344 37.371094 C 19.609375 37.285156 19.796875 37.160156 19.957031 37 C 20.113281 36.839844 20.238281 36.65625 20.324219 36.449219 C 20.410156 36.238281 20.453125 36.019531 20.453125 35.796875 C 20.453125 35.570312 20.410156 35.351562 20.324219 35.144531 C 20.238281 34.933594 20.113281 34.75 19.957031 34.589844 C 19.796875 34.429688 19.609375 34.308594 19.402344 34.21875 C 19.195312 34.132812 18.976562 34.089844 18.75 34.089844 C 17.742188 34.089844 16.746094 33.992188 15.757812 33.796875 C 14.769531 33.601562 13.808594 33.308594 12.878906 32.921875 C 11.949219 32.539062 11.066406 32.066406 10.226562 31.503906 C 9.390625 30.945312 8.613281 30.308594 7.902344 29.597656 C 7.191406 28.886719 6.554688 28.109375 5.996094 27.273438 C 5.433594 26.433594 4.960938 25.550781 4.578125 24.621094 C 4.191406 23.691406 3.898438 22.730469 3.703125 21.742188 C 3.507812 20.753906 3.410156 19.757812 3.410156 18.75 C 3.410156 17.742188 3.507812 16.746094 3.703125 15.757812 C 3.898438 14.769531 4.191406 13.808594 4.578125 12.878906 C 4.960938 11.949219 5.433594 11.066406 5.996094 10.226562 C 6.554688 9.390625 7.191406 8.613281 7.902344 7.902344 C 8.613281 7.191406 9.390625 6.554688 10.226562 5.996094 C 11.066406 5.433594 11.949219 4.960938 12.878906 4.578125 C 13.808594 4.191406 14.769531 3.898438 15.757812 3.703125 C 16.746094 3.507812 17.742188 3.410156 18.75 3.410156 C 19.757812 3.410156 20.753906 3.507812 21.742188 3.703125 C 22.730469 3.898438 23.691406 4.191406 24.621094 4.578125 C 25.550781 4.960938 26.433594 5.433594 27.273438 5.996094 C 28.109375 6.554688 28.886719 7.191406 29.597656 7.902344 C 30.308594 8.613281 30.945312 9.390625 31.503906 10.226562 C 32.066406 11.066406 32.539062 11.949219 32.921875 12.878906 C 33.308594 13.808594 33.601562 14.769531 33.796875 15.757812 C 33.992188 16.746094 34.089844 17.742188 34.089844 18.75 L 34.089844 23.621094 C 34.089844 24.039062 34.011719 24.445312 33.851562 24.832031 C 33.6875 25.21875 33.460938 25.5625 33.164062 25.859375 C 32.867188 26.15625 32.523438 26.382812 32.136719 26.542969 C 31.75 26.703125 31.34375 26.785156 30.925781 26.785156 C 30.503906 26.785156 30.101562 26.703125 29.714844 26.542969 C 29.328125 26.382812 28.984375 26.15625 28.6875 25.859375 C 28.390625 25.5625 28.160156 25.21875 28 24.832031 C 27.839844 24.445312 27.761719 24.039062 27.761719 23.621094 L 27.761719 11.445312 C 27.761719 11.21875 27.71875 11 27.628906 10.792969 C 27.542969 10.582031 27.421875 10.398438 27.261719 10.238281 C 27.101562 10.078125 26.917969 9.957031 26.707031 9.871094 C 26.5 9.78125 26.28125 9.738281 26.054688 9.738281 C 25.828125 9.738281 25.613281 9.78125 25.402344 9.871094 C 25.195312 9.957031 25.011719 10.078125 24.851562 10.238281 C 24.691406 10.398438 24.566406 10.582031 24.480469 10.792969 C 24.394531 11 24.351562 11.21875 24.351562 11.445312 L 24.351562 11.75 C 23.558594 11.105469 22.683594 10.609375 21.722656 10.265625 C 20.761719 9.917969 19.769531 9.746094 18.75 9.738281 C 18.386719 9.738281 18.023438 9.757812 17.660156 9.796875 C 17.300781 9.839844 16.941406 9.902344 16.589844 9.988281 C 16.234375 10.070312 15.886719 10.175781 15.546875 10.304688 C 15.203125 10.429688 14.871094 10.578125 14.550781 10.746094 C 14.226562 10.914062 13.914062 11.097656 13.613281 11.304688 C 13.3125 11.507812 13.023438 11.730469 12.75 11.96875 C 12.476562 12.210938 12.21875 12.464844 11.976562 12.738281 C 11.734375 13.007812 11.507812 13.292969 11.300781 13.589844 C 11.089844 13.890625 10.902344 14.199219 10.730469 14.519531 C 10.558594 14.839844 10.410156 15.171875 10.277344 15.511719 C 10.148438 15.851562 10.039062 16.199219 9.949219 16.550781 C 9.859375 16.902344 9.792969 17.261719 9.746094 17.621094 C 9.703125 17.984375 9.675781 18.34375 9.675781 18.710938 C 9.675781 19.074219 9.695312 19.4375 9.738281 19.796875 C 9.78125 20.160156 9.84375 20.515625 9.929688 20.871094 C 10.015625 21.222656 10.121094 21.570312 10.25 21.910156 C 10.375 22.253906 10.523438 22.585938 10.691406 22.90625 C 10.859375 23.230469 11.046875 23.542969 11.253906 23.84375 C 11.457031 24.140625 11.683594 24.429688 11.921875 24.703125 C 12.164062 24.976562 12.417969 25.234375 12.691406 25.476562 C 12.960938 25.71875 13.246094 25.941406 13.546875 26.148438 C 13.84375 26.359375 14.15625 26.546875 14.476562 26.714844 C 14.800781 26.886719 15.128906 27.035156 15.46875 27.167969 C 15.808594 27.296875 16.15625 27.40625 16.507812 27.492188 C 16.863281 27.582031 17.21875 27.648438 17.582031 27.691406 C 17.941406 27.738281 18.304688 27.757812 18.667969 27.761719 C 19.03125 27.761719 19.394531 27.738281 19.757812 27.695312 C 20.117188 27.652344 20.476562 27.589844 20.828125 27.5 C 21.183594 27.414062 21.53125 27.308594 21.871094 27.179688 C 22.210938 27.050781 22.542969 26.902344 22.863281 26.734375 C 23.1875 26.5625 23.5 26.375 23.796875 26.167969 C 24.097656 25.964844 24.382812 25.738281 24.65625 25.5 C 24.765625 25.875 24.910156 26.234375 25.085938 26.585938 C 25.261719 26.933594 25.46875 27.265625 25.703125 27.578125 C 25.9375 27.890625 26.199219 28.179688 26.488281 28.445312 C 26.773438 28.710938 27.082031 28.949219 27.414062 29.160156 C 27.742188 29.367188 28.085938 29.546875 28.449219 29.699219 C 28.8125 29.847656 29.183594 29.960938 29.566406 30.042969 C 29.949219 30.125 30.335938 30.171875 30.726562 30.1875 C 31.117188 30.199219 31.503906 30.175781 31.890625 30.121094 C 32.277344 30.0625 32.65625 29.972656 33.027344 29.847656 C 33.398438 29.726562 33.753906 29.570312 34.097656 29.378906 C 34.441406 29.191406 34.765625 28.976562 35.070312 28.730469 C 35.371094 28.484375 35.652344 28.210938 35.90625 27.914062 C 36.164062 27.621094 36.390625 27.304688 36.589844 26.964844 C 36.789062 26.628906 36.957031 26.277344 37.089844 25.910156 C 37.226562 25.542969 37.328125 25.167969 37.398438 24.785156 C 37.464844 24.398438 37.5 24.011719 37.5 23.621094 L 37.5 18.75 C 37.5 18.136719 37.46875 17.523438 37.40625 16.914062 C 37.347656 16.300781 37.257812 15.695312 37.136719 15.09375 C 37.015625 14.492188 36.867188 13.898438 36.6875 13.308594 C 36.507812 12.722656 36.300781 12.144531 36.066406 11.578125 C 35.832031 11.011719 35.570312 10.457031 35.28125 9.914062 C 34.988281 9.375 34.675781 8.847656 34.332031 8.339844 C 33.992188 7.828125 33.625 7.335938 33.238281 6.859375 C 32.847656 6.386719 32.4375 5.933594 32 5.5 C 31.566406 5.0625 31.113281 4.652344 30.640625 4.261719 C 30.164062 3.875 29.671875 3.507812 29.160156 3.167969 C 28.652344 2.824219 28.125 2.511719 27.585938 2.21875 C 27.042969 1.929688 26.488281 1.667969 25.921875 1.433594 C 25.355469 1.199219 24.777344 0.992188 24.191406 0.8125 C 23.601562 0.632812 23.007812 0.484375 22.40625 0.363281 C 21.804688 0.242188 21.199219 0.152344 20.585938 0.09375 C 19.976562 0.03125 19.363281 0 18.75 0 Z M 18.75 24.351562 C 18.382812 24.351562 18.019531 24.316406 17.65625 24.242188 C 17.296875 24.171875 16.945312 24.066406 16.605469 23.925781 C 16.265625 23.785156 15.945312 23.613281 15.636719 23.40625 C 15.332031 23.203125 15.050781 22.96875 14.789062 22.710938 C 14.53125 22.449219 14.296875 22.167969 14.09375 21.863281 C 13.886719 21.554688 13.714844 21.234375 13.574219 20.894531 C 13.433594 20.554688 13.328125 20.203125 13.257812 19.84375 C 13.183594 19.480469 13.148438 19.117188 13.148438 18.75 C 13.148438 18.382812 13.183594 18.019531 13.257812 17.65625 C 13.328125 17.296875 13.433594 16.945312 13.574219 16.605469 C 13.714844 16.265625 13.886719 15.945312 14.09375 15.636719 C 14.296875 15.332031 14.53125 15.050781 14.789062 14.789062 C 15.050781 14.53125 15.332031 14.296875 15.636719 14.09375 C 15.945312 13.886719 16.265625 13.714844 16.605469 13.574219 C 16.945312 13.433594 17.296875 13.328125 17.65625 13.257812 C 18.019531 13.183594 18.382812 13.148438 18.75 13.148438 C 19.117188 13.148438 19.480469 13.183594 19.84375 13.257812 C 20.203125 13.328125 20.554688 13.433594 20.894531 13.574219 C 21.234375 13.714844 21.554688 13.886719 21.863281 14.09375 C 22.167969 14.296875 22.449219 14.53125 22.710938 14.789062 C 22.96875 15.050781 23.203125 15.332031 23.40625 15.636719 C 23.613281 15.945312 23.785156 16.265625 23.925781 16.605469 C 24.066406 16.945312 24.171875 17.296875 24.242188 17.65625 C 24.316406 18.019531 24.351562 18.382812 24.351562 18.75 C 24.351562 19.117188 24.3125 19.480469 24.242188 19.84375 C 24.171875 20.203125 24.0625 20.554688 23.921875 20.890625 C 23.78125 21.230469 23.609375 21.554688 23.40625 21.859375 C 23.199219 22.164062 22.96875 22.449219 22.707031 22.707031 C 22.449219 22.96875 22.164062 23.199219 21.859375 23.40625 C 21.554688 23.609375 21.230469 23.78125 20.890625 23.921875 C 20.554688 24.0625 20.203125 24.171875 19.84375 24.242188 C 19.480469 24.3125 19.117188 24.351562 18.75 24.351562 Z M 18.75 24.351562 " fill-opacity="1" fill-rule="nonzero"/></g></svg>