<svg xmlns="http://www.w3.org/2000/svg" xmlns:xlink="http://www.w3.org/1999/xlink" width="50" zoomAndPan="magnify" viewBox="0 0 37.5 37.499999" height="50" preserveAspectRatio="xMidYMid meet" version="1.0"><defs><clipPath id="8820bd3c6c"><path d="M 5.625 0 L 31.875 0 L 31.875 37.007812 L 5.625 37.007812 Z M 5.625 0 " clip-rule="nonzero"/></clipPath></defs><g clip-path="url(#8820bd3c6c)"><path fill="#ffffff" d="M 18.75 0 C 11.503906 0 5.625 5.878906 5.625 13.125 C 5.625 22.96875 18.75 37.5 18.75 37.5 C 18.75 37.5 31.875 22.96875 31.875 13.125 C 31.875 5.878906 25.996094 0 18.75 0 Z M 18.75 17.8125 C 16.164062 17.8125 14.0625 15.710938 14.0625 13.125 C 14.0625 10.539062 16.164062 8.4375 18.75 8.4375 C 21.335938 8.4375 23.4375 10.539062 23.4375 13.125 C 23.4375 15.710938 21.335938 17.8125 18.75 17.8125 Z M 18.75 17.8125 " fill-opacity="1" fill-rule="nonzero"/></g></svg>